<?xml version="1.0" encoding="utf-8"?>
<!-- Generator: Adobe Illustrator 15.0.2, SVG Export Plug-In  -->
<!DOCTYPE svg PUBLIC "-//W3C//DTD SVG 1.1//EN" "http://www.w3.org/Graphics/SVG/1.1/DTD/svg11.dtd" [
	<!ENTITY ns_flows "http://ns.adobe.com/Flows/1.0/">
]>
<svg version="1.1"
	 xmlns="http://www.w3.org/2000/svg" xmlns:xlink="http://www.w3.org/1999/xlink" xmlns:a="http://ns.adobe.com/AdobeSVGViewerExtensions/3.0/"
	 x="0px" y="0px" width="441px" height="500px" viewBox="-1.766 -2 441 500"
	 overflow="visible" enable-background="new -1.766 -2 441 500" xml:space="preserve">
<defs>
</defs>
<path fill="#176DAD" d="M218.601,0C197.855,119.948,23.539,135.93,23.539,300.935C23.539,408.693,110.885,496,218.601,496
	c107.715,0,195.049-87.307,195.049-195.065C413.649,135.93,238.329,119.948,218.601,0z"/>
<path fill="#135C91" d="M218.601,0c-20.745,119.948,133.537,172.689,133.537,337.693C352.138,445.452,218.601,496,218.601,496
	c107.715,0,195.049-87.307,195.049-195.065C413.649,135.93,238.329,119.948,218.601,0z"/>
<g>
	<path fill="#152835" d="M342.417,391.641c-1.564-13.342-9.018-27.312-23.472-29.462c-12.627-1.878-23.872,7.78-24.294,20.513
		c-0.161,4.865,3.483-3.547,8.051-7.392c4.566-3.845,11.079-5.354,16.452-1.763c10.911,7.295,6.962,25.696-2.82,31.512
		c-11.697,9.587-32.705-5.84-41.905-13.841c-11.288-9.821-40.386-35.271-56.127-21.891c-15.742-13.38-44.839,12.069-56.128,21.891
		c-9.198,8.001-30.207,23.428-41.904,13.841c-9.783-5.815-13.731-24.217-2.82-31.512c5.373-3.591,11.886-2.082,16.453,1.763
		c4.567,3.845,8.211,12.257,8.05,7.392c-0.422-12.732-11.667-22.391-24.294-20.513c-14.455,2.149-21.906,16.12-23.471,29.462
		c-3.528,30.082,25.602,50.768,52.984,52.821c30.519,2.287,58.896-16.469,71.131-44.157c12.236,27.688,40.612,46.444,71.13,44.157
		C316.815,442.408,345.944,421.723,342.417,391.641z"/>
</g>
<g>
	<path fill="#0B151C" d="M339.371,412.542c-1.546,3.538-3.582,6.836-6.008,9.866c-10.235,12.785-27.402,20.813-43.932,22.054
		c-9.948,0.745-19.67-0.745-28.679-4.053c-4.233-1.554-8.309-3.508-12.178-5.821c-3.859-2.309-7.511-4.973-10.906-7.948
		c0,0,40.528,10.798,68.288,4.61C333.717,425.062,339.371,412.542,339.371,412.542z"/>
</g>
<g>
	<path fill="#0B151C" d="M218.301,400.305c-12.235,27.688-40.612,46.444-71.131,44.157c-13.691-1.027-27.82-6.712-38.084-15.9
		c0,0,14.483,13.575,48.152,4.459S218.301,400.305,218.301,400.305z"/>
</g>
<path fill="#152835" d="M430.315,190.441l-36.844-4.933c-17.038-2.832-34.01-4.266-50.509-4.266
	c-62.542,0-98.806,20.069-99.736,20.654c-2.721,0.974-5.63,2.501-8.537,3.125c-1.085-0.59-2.294-0.022-3.651-0.022H206.89
	c-1.358,0-2.563-0.547-3.69,0.06c-2.716-0.588-5.469-1.582-7.875-2.411c-1.518-0.861-37.815-21.168-100.363-21.168
	c-16.462,0-33.465,1.314-50.352,4.131l-36.494,4.852L0,193.346l1.63,38.959l2.292,0.851c0.114,0.039,10.867,5.356,12.265,14.307
	c0.234,1.375,1.087,4.424,2.216,8.208c1.359,4.733,3.065,10.73,4.503,16.921c2.641,7.728,5.356,15.686,9.24,23.198
	c4.777,9.26,10.676,20.749,22.943,25.021c12.621,7.567,29.231,11.571,50.512,12.229c0,0,3.1,0.314,8.114,0.314
	c16.07,0,55.048-3.268,69.96-33.469l17.427-34.646c0.042-0.117,2.138-8.24,7.221-12.24h21.202c5.164,4,7.376,12.359,7.569,12.941
	l17.157,34.325c14.912,30.203,53.926,33.278,70.002,33.278c4.814,0,7.841-0.389,7.841-0.407c21.549-0.658,38.169-4.728,50.123-11.97
	c12.887-4.58,18.827-16.094,23.562-25.336c3.927-7.529,6.64-15.502,9.591-24.317c1.083-5.103,2.836-11.108,4.195-15.842
	c1.084-3.781,1.94-6.833,2.17-8.235c1.208-7.491,8.471-12.85,12.31-14.287l2.293-0.857l1.627-38.978L430.315,190.441z
	 M180.844,260.147c-3.347,10.174-14.799,38.302-27.571,46.052c-9.897,6.072-23.336,9.253-38.787,9.253
	c-8.533,0-17.357-0.965-26.167-2.947c-24.145-5.32-30.51-11.765-36.374-27.278c-6.177-16.359-9.007-28.047-8.346-50.214
	c0.584-19.375,27.056-25.118,27.29-25.179c12.734-2.625,25.585-3.941,38.244-3.941c35.215,0,60.598,10.443,65.806,15.765
	c6.483,6.716,7.492,14.989,7.725,20.618C182.857,246.774,181.306,257.104,180.844,260.147z M13.778,211.491
	c0-2.176,1.749-3.491,4.006-3.491h13.044c2.17,0,3.923,1.315,3.923,3.491c0,2.193-1.753,3.509-3.923,3.509H17.784
	C15.527,215,13.778,213.685,13.778,211.491z M420.725,215h-13.077c-2.177,0-3.962-1.315-3.962-3.509
	c0-2.176,1.785-3.491,3.962-3.491h13.077c2.136,0,3.924,1.315,3.924,3.491C424.648,213.685,422.86,215,420.725,215z
	 M350.106,312.505c-8.809,1.982-17.59,2.947-26.124,2.947c-15.449,0-28.888-3.181-38.828-9.253
	c-15.295-9.304-27.328-45.525-27.373-45.525c-0.613-3.61-2.168-13.92-2.015-18.398c0.236-5.629,1.278-13.924,7.768-20.618
	c5.202-5.321,30.552-15.765,65.802-15.765c12.615,0,25.472,1.316,38.206,3.941c0.23,0.061,26.71,5.804,27.293,25.179
	c0.658,22.13-2.297,34.277-8.311,50.237C380.664,300.707,374.295,307.171,350.106,312.505z"/>
<path fill="#C5D5F0" d="M109.134,205.893c-12.659,0-25.51,1.316-38.244,3.941c-0.234,0.061-26.706,5.804-27.29,25.179
	c-0.661,22.167,2.169,33.854,8.346,50.214c5.864,15.514,12.229,21.958,36.374,27.278c8.809,1.982,17.634,2.947,26.167,2.947
	c15.45,0,28.889-3.181,38.787-9.253c12.772-7.75,24.225-35.878,27.571-46.052c0.461-3.044,2.013-13.373,1.821-17.872
	c-0.233-5.629-1.242-13.902-7.725-20.618C169.732,216.336,144.349,205.893,109.134,205.893z"/>
<path fill="#C5D5F0" d="M367.542,209.834c-12.734-2.625-25.591-3.941-38.206-3.941c-35.25,0-60.6,10.443-65.802,15.765
	c-6.489,6.694-7.531,14.989-7.768,20.618c-0.153,4.479,1.401,14.788,2.015,18.398c0.045,0,12.078,36.222,27.373,45.525
	c9.94,6.072,23.379,9.253,38.828,9.253c8.534,0,17.315-0.965,26.124-2.947c24.188-5.334,30.558-11.798,36.418-27.255
	c6.014-15.96,8.969-28.107,8.311-50.237C394.252,215.638,367.772,209.895,367.542,209.834z"/>
<path fill="#C5D5F0" d="M30.828,208H17.784c-2.257,0-4.006,1.315-4.006,3.491c0,2.193,1.749,3.509,4.006,3.509h13.044
	c2.17,0,3.923-1.315,3.923-3.509C34.751,209.315,32.998,208,30.828,208z"/>
<path fill="#C5D5F0" d="M420.725,208h-13.077c-2.177,0-3.962,1.315-3.962,3.491c0,2.193,1.785,3.509,3.962,3.509h13.077
	c2.136,0,3.924-1.315,3.924-3.509C424.648,209.315,422.86,208,420.725,208z"/>
<path fill="#A5B3C9" d="M367.542,209.834c-2.627,39.559-42.2,88.026-82.388,96.365c9.94,6.072,23.379,9.253,38.828,9.253
	c8.534,0,17.315-0.965,26.124-2.947c24.188-5.334,30.558-11.798,36.418-27.255c6.014-15.96,8.969-28.107,8.311-50.237
	C394.252,215.638,367.772,209.895,367.542,209.834z"/>
<path fill="#A5B3C9" d="M64.422,303.547c5.278,3.764,12.662,6.482,23.897,8.958c8.809,1.982,17.634,2.947,26.167,2.947
	c15.45,0,28.889-3.181,38.787-9.253c12.772-7.75,24.225-35.878,27.571-46.052c0.461-3.044,2.013-13.373,1.821-17.872
	c-0.233-5.629-1.242-13.902-7.725-20.618c-2.442-2.494-9.315-6.113-19.557-9.257C145.326,252.911,102.942,290.228,64.422,303.547z"
	/>
</svg>
